<?xml version="1.0" standalone="no"?>
<!DOCTYPE svg PUBLIC "-//W3C//DTD SVG 20010904//EN"
 "http://www.w3.org/TR/2001/REC-SVG-20010904/DTD/svg10.dtd">
<svg version="1.0" xmlns="http://www.w3.org/2000/svg"
 width="512.000000pt" height="512.000000pt" viewBox="0 0 512.000000 512.000000"
 preserveAspectRatio="xMidYMid meet">
<metadata>
Created by potrace 1.14, written by Peter Selinger 2001-2017
</metadata>
<g transform="translate(0.000000,512.000000) scale(0.100000,-0.100000)"
fill="#000000" stroke="none">
<path d="M2440 5105 c-155 -39 -277 -129 -351 -260 -17 -30 -34 -57 -39 -60
-4 -2 -20 7 -36 20 -79 68 -242 97 -357 64 -183 -54 -307 -216 -307 -402 l0
-62 -52 -25 c-36 -18 -60 -39 -82 -72 -27 -40 -38 -48 -78 -57 -73 -16 -131
-48 -181 -96 -119 -118 -135 -308 -36 -446 l21 -30 -23 -17 c-60 -42 -98 -85
-106 -120 -6 -23 -4 -74 3 -137 7 -55 15 -125 18 -155 3 -30 8 -68 11 -85 2
-16 7 -49 10 -73 8 -75 26 -216 30 -247 4 -29 18 -138 30 -240 3 -27 8 -61 10
-75 2 -14 9 -68 15 -120 6 -52 13 -108 15 -125 2 -16 6 -52 10 -80 3 -27 8
-63 10 -80 2 -16 6 -52 10 -80 3 -27 8 -63 10 -80 2 -16 6 -52 10 -80 3 -27 8
-63 10 -80 2 -16 7 -52 10 -80 3 -27 8 -65 11 -83 2 -18 6 -54 9 -80 9 -74 15
-125 20 -152 3 -14 7 -50 10 -80 3 -30 7 -64 9 -75 2 -11 7 -47 10 -80 4 -33
9 -71 11 -85 2 -14 6 -50 10 -81 3 -31 7 -65 9 -75 2 -11 7 -46 10 -79 4 -33
9 -71 11 -85 2 -14 9 -68 15 -120 6 -52 13 -108 15 -125 2 -16 9 -69 15 -117
35 -289 37 -297 65 -334 57 -75 -63 -69 1312 -72 1215 -2 1234 -2 1272 18 58
29 88 77 97 155 3 22 9 69 14 105 6 36 12 90 15 120 4 30 8 66 10 80 2 14 6
48 10 75 7 66 12 99 20 165 4 30 9 66 10 80 7 62 16 137 20 160 2 14 6 50 10
80 6 58 14 119 20 160 9 62 15 109 21 160 3 30 8 69 10 85 2 17 9 68 14 115 6
47 12 99 14 115 2 17 7 57 11 90 4 32 8 67 10 76 2 10 6 45 10 78 3 33 8 70
10 82 3 12 7 47 10 77 3 30 7 67 10 81 2 14 6 46 9 71 3 25 10 83 15 130 6 47
13 103 16 125 4 37 10 82 21 160 2 17 6 53 9 80 3 28 8 61 10 75 7 42 14 102
20 160 3 30 8 66 10 80 2 14 6 48 10 75 7 66 12 99 20 165 28 208 29 244 10
285 -10 20 -42 55 -72 77 -29 23 -52 44 -50 47 41 74 67 200 56 271 -14 87
-30 130 -73 192 -49 73 -116 127 -195 159 -56 22 -57 23 -74 82 -23 77 -99
156 -176 184 -46 16 -56 24 -77 66 -73 142 -245 217 -398 173 -63 -19 -119
-50 -150 -85 -11 -11 -22 -21 -25 -21 -4 0 -15 25 -26 56 -26 77 -61 113 -106
110 -29 -2 -43 5 -93 51 -33 29 -63 53 -68 53 -5 0 -7 8 -3 19 8 25 -12 66
-39 79 -78 38 -233 51 -326 27z"/>
<path d="M385 3100 c-74 -16 -144 -74 -174 -141 -14 -30 -29 -46 -58 -59 -144
-64 -192 -262 -93 -383 48 -57 112 -90 183 -93 33 -1 70 2 84 7 19 7 34 3 71
-18 39 -23 59 -28 117 -28 150 0 255 106 255 254 0 49 -35 136 -63 160 -11 8
-17 29 -17 55 0 67 -31 138 -82 187 -51 48 -152 75 -223 59z"/>
<path d="M4797 2099 c-41 -10 -127 -64 -127 -79 0 -6 -22 -10 -49 -10 -92 0
-185 -60 -226 -146 -26 -56 -25 -156 4 -212 39 -76 112 -129 190 -139 20 -3
39 -11 44 -19 22 -39 64 -76 113 -100 48 -23 63 -26 120 -21 157 12 256 145
227 306 -8 43 -7 62 4 89 22 52 18 141 -7 196 -28 59 -90 112 -154 131 -55 17
-83 17 -139 4z"/>
</g>
</svg>
